<svg width="117" height="40" viewBox="0 0 117 40" fill="none" xmlns="http://www.w3.org/2000/svg">
<rect width="117" height="40" rx="20" fill="#F0EFEF"/>
<path d="M30.512 20.224C31.1413 20.3413 31.6747 20.6613 32.112 21.184C32.5493 21.7067 32.768 22.3147 32.768 23.008C32.768 23.5733 32.624 24.0853 32.336 24.544C32.0587 24.992 31.648 25.3493 31.104 25.616C30.56 25.872 29.9093 26 29.152 26H25.28V14.816H29.04C30.1707 14.816 31.0293 15.0773 31.616 15.6C32.2133 16.1227 32.512 16.8 32.512 17.632C32.512 18.3253 32.3253 18.8907 31.952 19.328C31.5787 19.7547 31.0987 20.0533 30.512 20.224ZM26.4 19.76H29.008C29.7653 19.76 30.3467 19.584 30.752 19.232C31.168 18.8693 31.376 18.3733 31.376 17.744C31.376 17.1253 31.168 16.64 30.752 16.288C30.3467 15.936 29.7493 15.76 28.96 15.76H26.4V19.76ZM29.072 25.056C29.8827 25.056 30.512 24.864 30.96 24.48C31.4187 24.096 31.648 23.568 31.648 22.896C31.648 22.224 31.408 21.6907 30.928 21.296C30.4587 20.8907 29.824 20.688 29.024 20.688H26.4V25.056H29.072ZM35.9469 14.16V26H34.8269V14.16H35.9469ZM42.3071 26.128C41.4858 26.128 40.7445 25.9467 40.0831 25.584C39.4325 25.2107 38.9151 24.688 38.5311 24.016C38.1578 23.3333 37.9711 22.5387 37.9711 21.632C37.9711 20.7253 38.1631 19.936 38.5471 19.264C38.9311 18.5813 39.4538 18.0587 40.1151 17.696C40.7765 17.3227 41.5178 17.136 42.3391 17.136C43.1605 17.136 43.9018 17.3227 44.5631 17.696C45.2351 18.0587 45.7578 18.5813 46.1311 19.264C46.5151 19.936 46.7071 20.7253 46.7071 21.632C46.7071 22.528 46.5151 23.3173 46.1311 24C45.7471 24.6827 45.2191 25.2107 44.5471 25.584C43.8751 25.9467 43.1285 26.128 42.3071 26.128ZM42.3071 25.152C42.8831 25.152 43.4165 25.024 43.9071 24.768C44.3978 24.5013 44.7925 24.1067 45.0911 23.584C45.4005 23.0507 45.5551 22.4 45.5551 21.632C45.5551 20.864 45.4058 20.2187 45.1071 19.696C44.8085 19.1627 44.4138 18.768 43.9231 18.512C43.4325 18.2453 42.8991 18.112 42.3231 18.112C41.7471 18.112 41.2138 18.2453 40.7231 18.512C40.2325 18.768 39.8378 19.1627 39.5391 19.696C39.2511 20.2187 39.1071 20.864 39.1071 21.632C39.1071 22.4 39.2511 23.0507 39.5391 23.584C39.8378 24.1067 40.2271 24.5013 40.7071 24.768C41.1978 25.024 41.7311 25.152 42.3071 25.152ZM48.2368 21.632C48.2368 20.7253 48.4181 19.936 48.7808 19.264C49.1434 18.5813 49.6448 18.0587 50.2848 17.696C50.9248 17.3227 51.6554 17.136 52.4768 17.136C53.5541 17.136 54.4394 17.4027 55.1328 17.936C55.8368 18.4693 56.2901 19.1947 56.4928 20.112H55.2928C55.1434 19.4827 54.8181 18.992 54.3168 18.64C53.8261 18.2773 53.2128 18.096 52.4768 18.096C51.8901 18.096 51.3621 18.2293 50.8928 18.496C50.4234 18.7627 50.0501 19.1627 49.7728 19.696C49.5061 20.2187 49.3728 20.864 49.3728 21.632C49.3728 22.4 49.5061 23.0507 49.7728 23.584C50.0501 24.1173 50.4234 24.5173 50.8928 24.784C51.3621 25.0507 51.8901 25.184 52.4768 25.184C53.2128 25.184 53.8261 25.008 54.3168 24.656C54.8181 24.2933 55.1434 23.792 55.2928 23.152H56.4928C56.2901 24.048 55.8368 24.768 55.1328 25.312C54.4288 25.856 53.5434 26.128 52.4768 26.128C51.6554 26.128 50.9248 25.9467 50.2848 25.584C49.6448 25.2107 49.1434 24.688 48.7808 24.016C48.4181 23.3333 48.2368 22.5387 48.2368 21.632ZM63.2813 26L59.6813 22.08V26H58.5613V14.16H59.6813V21.168L63.2013 17.264H64.7693L60.6253 21.616L64.8013 26H63.2813Z" fill="#717171"/>
<path d="M84.5287 29C84.177 29 83.8259 29 83.4742 29C83.4289 28.9899 83.3841 28.9743 83.3384 28.9713C82.0821 28.8858 80.8888 28.5623 79.7916 27.948C76.8344 26.2919 75.2255 23.7608 75.0167 20.376C74.9166 18.7525 75.2663 17.1995 76.0616 15.7787C77.7138 12.8281 80.2454 11.2248 83.6231 11.0165C85.2466 10.9164 86.7946 11.2736 88.2219 12.0589C90.76 13.455 92.311 15.5851 92.8584 18.4346C92.9243 18.7772 92.954 19.1273 93.0002 19.474C93.0002 19.8256 93.0002 20.1768 93.0002 20.5284C92.9902 20.5787 92.9741 20.6291 92.9706 20.6799C92.883 21.9351 92.551 23.1244 91.9432 24.2241C90.5431 26.7587 88.4171 28.3108 85.5691 28.8581C85.226 28.924 84.8758 28.9532 84.5287 29ZM87.5045 14.6332C85.2265 13.0565 81.6907 13.138 79.3795 15.5463C76.9536 18.0739 77.26 21.597 78.6415 23.4967C81.5951 20.543 84.5508 17.5869 87.5045 14.6332ZM89.3755 16.5117C86.4213 19.4659 83.4626 22.4246 80.5075 25.3798C82.8574 26.9715 86.3106 26.8186 88.5811 24.5003C90.9366 22.0956 90.851 18.6318 89.3755 16.5117Z" fill="#717171"/>
</svg>
