<svg width="309" height="123" viewBox="0 0 309 123" fill="none" xmlns="http://www.w3.org/2000/svg">
<path d="M139.186 50.7552C138.706 50.4849 138.55 49.8485 138.829 49.3777C139.761 47.5992 140.59 46.0386 141.374 44.2514C142.333 41.9411 144.766 35.2193 143.24 33.1531L143.249 33.1706C143.153 33.1183 142.917 33.0747 142.839 33.1008C142.543 33.1444 142.298 33.3101 142.072 33.4931C140.311 35.2019 139.718 37.7215 139.169 40.0056C139.09 41.1564 138.236 42.2724 137.19 41.1651C136.056 39.9446 134.679 33.4234 132.874 33.9814C132.046 34.8619 132.595 36.3876 132.691 37.4774C133.633 41.6795 136.135 45.2104 138.419 48.7151C138.619 49.6915 137.556 48.8284 137.233 48.5843C135.35 47.2243 133.781 45.4632 132.517 43.5191C127.347 35.7337 133.275 26.5011 138.21 38.323C139.073 36.126 139.936 33.6588 141.95 32.2464C144.783 30.6859 145.925 33.9029 145.69 36.2132C145.481 40.4241 143.571 44.3124 141.74 48.0264C141.06 48.9854 140.79 51.4439 139.186 50.7552Z" fill="#D88591"/>
<path d="M193.771 62.3068C189.272 59.3862 185.488 51.9932 185.602 46.614C185.549 44.1119 187.485 42.1678 189.847 43.7893C191.696 45.2714 192.707 47.5469 193.858 49.5695C194.555 46.9366 196.883 39.2297 200.362 43.554C202.332 47.73 201.451 52.7429 200.205 57.0323C199.577 58.3139 199.159 62.5509 197.275 62.0452C195.401 61.4873 197.275 58.2877 197.397 56.9189C198.409 52.8737 199.699 48.2967 198.269 44.234C197.746 44.2427 197.467 45.0099 197.232 45.3935C196.22 47.512 195.802 49.8136 195.427 52.1065C195.27 53.2922 193.762 53.9025 192.925 52.9696C191.12 50.7988 190.135 47.9915 188.174 45.9515C187.284 51.4439 190.475 56.8928 193.649 61.1386C193.928 61.4611 194.608 62.2981 193.771 62.3068Z" fill="#D88591"/>
<path d="M149.229 21.1046C147.817 18.8727 148.061 15.7603 149.116 13.4239C150.694 10.5556 152.655 12.6131 152.603 15.0716C153.632 14.3567 154.504 13.3192 155.707 12.9095C158.322 12.1597 157.729 15.0454 157.058 16.5188C156.404 18.0009 155.454 19.361 154.417 20.6077C154.068 20.9825 153.449 21 153.065 20.6948C152.063 19.8579 153.196 18.8379 153.824 18.184C154.948 16.9199 156.335 15.5947 156.57 13.8598C156.57 13.8685 156.57 13.8859 156.57 13.8946C156.57 13.9034 156.57 13.9121 156.57 13.9295C156.57 13.8859 156.57 13.8423 156.561 13.7987C155.175 13.7726 154.303 15.2198 153.344 16.0306C152.952 16.4142 152.481 16.8763 151.888 16.667C150.825 16.1439 151.252 14.5747 150.598 13.6941C149.552 15.3942 150.145 17.6783 150.267 19.5789C150.31 19.9102 150.354 20.2328 150.363 20.5641C150.432 21.2528 149.7 21.7149 149.229 21.1046Z" fill="#D88591"/>
<path d="M190.118 86.9008C187.511 86.029 183.849 83.5182 183.396 80.6411C183.5 77.7118 187.005 79.4555 188.383 80.4581C188.452 78.5226 188.845 74.1199 191.748 75.3231C192.646 75.9508 193.108 77.0754 193.509 78.0606C194.25 80.1616 194.913 82.3238 195.27 84.5295C195.444 85.7936 193.561 86.1859 193.23 84.9479C193.117 84.4684 193.038 83.9715 192.951 83.4833C192.655 82.5853 191.8 75.2882 190.527 76.3256C189.202 78.0257 190.728 80.4319 189.664 82.1494C189.211 82.6551 188.452 82.6202 187.903 82.315C186.962 81.8878 185.985 81.5304 185.035 81.1294C186.439 83.5182 189.263 84.9741 191.748 85.8982C192.027 86.0639 192.114 86.4562 191.905 86.709C191.469 87.2408 190.658 87.049 190.118 86.9008Z" fill="#D88591"/>
<path d="M207.938 19.9887C205.584 19.7445 205.863 15.7429 208.321 16.2311C211.163 16.0655 210.693 20.4507 207.938 19.9887Z" fill="#D88591"/>
<path d="M180.327 33.1967C180.345 31.6449 182.698 31.6449 182.707 33.1967C182.698 34.7573 180.345 34.7573 180.327 33.1967Z" fill="#D88591"/>
<path d="M156.509 55.7333C155.062 54.9225 156.012 52.5337 157.538 52.5598C160.415 52.8301 158.968 56.9538 156.509 55.7333Z" fill="#D88591"/>
<path d="M133.162 23.0052C133.17 21.68 135.176 21.68 135.193 23.0052C135.176 24.3303 133.17 24.3303 133.162 23.0052Z" fill="#D88591"/>
<path d="M16.5122 69.0198C15.5532 68.0521 16.6256 65.8638 17.9507 66.8577C18.7267 66.7356 19.459 67.3808 19.5636 68.1305C19.738 69.9352 17.4538 70.3624 16.5122 69.0198Z" fill="white"/>
<path d="M0 121.774C0.0174364 120.222 2.36263 120.222 2.38007 121.774C2.36263 123.325 0.0174364 123.325 0 121.774Z" fill="white"/>
<path d="M281.048 21.7585C279.322 21.6015 278.756 19.1256 279.976 18.0358C280.674 17.2686 282.103 17.565 282.138 18.6984C283.83 19.544 282.81 22.02 281.048 21.7585Z" fill="white"/>
<path d="M205.479 1.28813C205.496 -0.429356 208.094 -0.429356 208.112 1.28813C208.094 2.9969 205.496 2.9969 205.479 1.28813Z" fill="white"/>
<path d="M159.569 36.3266C159.299 35.8645 159.247 35.2193 159.552 34.766C159.621 34.6614 159.691 34.5742 159.778 34.4957C160.528 32.1941 163.841 32.848 163.501 35.3153C163.301 37.1112 160.563 37.9307 159.569 36.3266Z" fill="white"/>
<path d="M178.13 67.3895C178.148 65.8812 180.423 65.8812 180.44 67.3895C180.423 68.889 178.148 68.889 178.13 67.3895Z" fill="white"/>
<path d="M9.99968 105.07C10.0694 105.566 9.78172 106.133 9.2935 106.308C8.5263 106.578 7.72423 106.665 6.91344 106.682C6.93087 106.892 6.95703 107.101 6.97446 107.301C6.9919 108.566 7.5673 110.98 5.7452 111.164C5.22211 111.164 4.71645 110.797 4.59439 110.283C4.42875 109.071 4.42003 107.859 4.48106 106.639C3.34769 106.578 2.20561 106.482 1.06352 106.534C0.810697 106.499 0.618896 106.281 0.618896 106.029C0.618896 105.802 0.775824 105.593 0.993779 105.54C2.2492 105.471 3.43488 104.921 4.65542 104.599C4.8385 102.873 5.08261 101.146 5.1698 99.4289C5.09133 99.0104 5.7452 98.8535 5.85853 99.2719C6.20726 100.876 6.46881 102.524 6.66061 104.163C8.07296 103.875 9.66838 103.727 9.99968 105.07Z" fill="white"/>
<path d="M27.5494 53.0742C28.2207 53.7193 27.8982 54.9312 27.0002 55.1666C26.355 55.2537 25.6925 55.2712 25.0386 55.2625C25.0386 56.1692 25.0211 57.0758 25.0037 57.9738C24.995 58.8282 24.7596 59.9964 23.696 59.9877C23.1031 59.9877 22.6236 59.5431 22.5277 58.9677C22.4493 58.6974 22.5103 57.0235 22.6672 55.0358C18.3256 54.2076 19.8338 53.1091 22.8678 52.8039C23.1903 49.8223 23.6873 47.0499 24.2539 47.8171C24.7073 49.4213 24.9078 51.0777 24.9863 52.7516C25.9191 52.7603 26.8171 52.4726 27.5494 53.0742Z" fill="white"/>
<path d="M183.64 6.24006C184.494 6.69341 184.486 8.04473 183.64 8.49807C182.489 8.89911 181.225 8.87296 179.978 8.82936C179.97 10.4945 179.839 12.151 179.577 13.7726C179.255 15.1065 177.171 14.9757 177.04 13.6069C176.997 11.9592 177.049 10.3027 177.189 8.655C175.916 8.53295 174.625 8.40217 173.457 7.95754C172.882 7.39086 173.719 6.91136 174.251 6.85033C175.297 6.58879 176.36 6.40571 177.441 6.27493C177.651 4.63591 177.938 3.02305 178.27 1.4189C177.956 0.677851 179.211 0.433742 179.176 1.26197C179.534 2.83125 179.769 4.44411 179.882 6.07441C180.563 6.03954 181.234 6.0221 181.914 6.00467C182.507 5.98723 183.117 5.93492 183.64 6.24006Z" fill="white"/>
<path d="M301.449 33.3623C302.931 33.5716 302.94 35.7511 301.449 35.9691C300.743 36.0476 300.019 36.0127 299.313 36.0127C299.252 36.0127 299.182 36.0127 299.121 36.004C299.147 37.146 299.139 38.2968 299.112 39.4389C299.13 40.4938 299.051 42.0893 297.665 42.098C296.994 42.098 296.445 41.601 296.34 40.9472C296.279 39.2384 296.366 37.5384 296.523 35.8296C295.207 35.6465 293.925 35.2804 292.87 34.4783C292.748 34.3998 292.661 34.2603 292.661 34.0772C292.739 33.3188 294.169 33.4757 294.657 33.3623C295.364 33.2926 296.079 33.249 296.785 33.2316C296.977 31.5315 297.177 29.8315 297.299 28.1314C297.212 27.8699 297.325 27.5735 297.596 27.4514C298.738 27.0329 298.52 29.9623 298.755 30.6771C298.851 31.5315 298.929 32.3859 298.99 33.2403C299.81 33.2752 300.629 33.3188 301.449 33.3623Z" fill="white"/>
<path d="M308.241 115.139C308.232 116.333 306.959 116.517 306.026 116.333C305.573 116.29 305.111 116.255 304.649 116.22C304.683 117.153 304.675 118.095 304.596 119.027C304.413 120.457 302.234 120.466 302.068 119.027C302.016 118.007 302.077 116.996 302.19 115.993C301.327 115.88 300.473 115.697 299.662 115.401C298.929 114.79 299.862 114.311 300.464 114.311C301.135 114.18 301.806 114.075 302.486 113.997C302.678 112.82 302.896 111.643 303.027 110.466C302.905 110.161 303.071 109.769 303.445 109.716C303.847 109.664 304.134 110.056 304.038 110.405C304.187 111.547 304.352 112.698 304.466 113.857C304.718 113.849 304.971 113.849 305.224 113.849C306.323 113.849 308.188 113.57 308.241 115.139Z" fill="white"/>
</svg>
