<svg width="335" height="284" viewBox="0 0 335 284" fill="none" xmlns="http://www.w3.org/2000/svg">
<path fill-rule="evenodd" clip-rule="evenodd" d="M24.4471 25.303C40.1052 9.76497 61.3395 1.03617 83.4801 1.03617C105.621 1.03617 126.855 9.76497 142.513 25.303L166.978 49.5669L191.443 25.303C199.145 17.3869 208.359 11.0727 218.546 6.72896C228.733 2.38517 239.69 0.0987605 250.777 0.00312937C261.863 -0.0925018 272.858 2.00457 283.12 6.17197C293.381 10.3394 302.704 16.4937 310.544 24.2757C318.384 32.0578 324.584 41.3118 328.782 51.4977C332.981 61.6837 335.093 72.5976 334.997 83.6027C334.901 94.6078 332.597 105.484 328.221 115.596C323.845 125.708 317.484 134.853 309.509 142.499L166.978 284L24.4471 142.499C8.79362 126.956 0 105.878 0 83.901C0 61.9235 8.79362 40.8458 24.4471 25.303Z" fill="#FF8399"/>
</svg>
