<svg width="312" height="123" viewBox="0 0 312 123" fill="none" xmlns="http://www.w3.org/2000/svg">
<path d="M77.744 85.872C78.056 86.136 78.26 86.664 78.356 87.456C78.476 88.224 78.44 89.028 78.248 89.868C78.104 90.564 77.84 91.236 77.456 91.884C77.072 92.508 76.568 92.88 75.944 93C75.704 93.048 75.152 93.072 74.288 93.072C73.424 93.096 72.404 93.096 71.228 93.072C70.076 93.072 68.9 93.06 67.7 93.036C66.524 93.036 65.468 93.036 64.532 93.036C63.62 93.06 62.972 93.096 62.588 93.144C61.604 93.312 60.596 93.372 59.564 93.324C58.556 93.276 57.848 93.132 57.44 92.892C57.608 92.556 57.752 92.052 57.872 91.38C57.992 90.684 58.088 89.928 58.16 89.112C58.232 88.296 58.256 87.516 58.232 86.772L58.088 64.596C58.352 64.548 58.808 64.536 59.456 64.56C60.128 64.584 60.836 64.692 61.58 64.884C62.396 65.076 63.128 65.436 63.776 65.964C64.424 66.492 64.82 67.164 64.964 67.98C65.012 68.244 65.048 68.772 65.072 69.564C65.096 70.332 65.108 71.244 65.108 72.3C65.132 73.356 65.132 74.436 65.108 75.54C65.108 76.644 65.108 77.676 65.108 78.636C65.108 79.596 65.096 80.376 65.072 80.976C65.072 81.576 65.072 81.876 65.072 81.876C65.048 82.788 65.144 83.616 65.36 84.36C65.576 85.08 65.888 85.644 66.296 86.052C66.608 86.364 66.992 86.58 67.448 86.7C67.904 86.82 68.468 86.904 69.14 86.952C69.428 86.976 69.872 86.976 70.472 86.952C71.096 86.928 71.78 86.892 72.524 86.844C73.268 86.772 74 86.688 74.72 86.592C75.464 86.496 76.112 86.388 76.664 86.268C77.216 86.148 77.576 86.016 77.744 85.872ZM84.4791 93.324C83.4471 93.132 82.7151 92.436 82.2831 91.236C81.8751 90.036 81.6711 88.548 81.6711 86.772C81.6711 86.556 81.6591 86.016 81.6351 85.152C81.6351 84.288 81.6231 83.22 81.5991 81.948C81.5991 80.652 81.5871 79.26 81.5631 77.772C81.5631 76.284 81.5511 74.796 81.5271 73.308C81.5031 71.82 81.4791 70.452 81.4551 69.204C81.4311 67.932 81.4071 66.888 81.3831 66.072C81.3591 65.256 81.3351 64.764 81.3111 64.596C81.6711 64.524 82.2231 64.512 82.9671 64.56C83.7351 64.584 84.5271 64.704 85.3431 64.92C86.1831 65.112 86.9151 65.448 87.5391 65.928C88.1631 66.384 88.5231 67.02 88.6191 67.836C88.6671 68.22 88.7031 68.88 88.7271 69.816C88.7511 70.728 88.7631 71.82 88.7631 73.092C88.7871 74.34 88.7991 75.672 88.7991 77.088C88.7991 78.504 88.7991 79.908 88.7991 81.3C88.7991 82.668 88.7991 83.94 88.7991 85.116C88.7991 86.268 88.7991 87.24 88.7991 88.032C88.8231 88.8 88.8471 89.268 88.8711 89.436C88.9191 89.94 89.0151 90.312 89.1591 90.552C89.3031 90.768 89.4591 91.044 89.6271 91.38C89.0271 92.028 88.2831 92.556 87.3951 92.964C86.5071 93.372 85.5351 93.492 84.4791 93.324ZM115.567 64.02C115.855 64.26 116.059 64.728 116.179 65.424C116.323 66.12 116.383 66.876 116.359 67.692C116.335 68.484 116.215 69.204 115.999 69.852C115.783 70.476 115.471 70.848 115.063 70.968C114.895 71.016 114.547 71.088 114.019 71.184C113.515 71.256 113.047 71.352 112.615 71.472C112.207 71.592 111.667 71.796 110.995 72.084C110.323 72.372 109.747 72.792 109.267 73.344C108.883 73.8 108.571 74.28 108.331 74.784C108.091 75.264 107.959 75.888 107.935 76.656C107.911 76.968 107.899 77.556 107.899 78.42C107.899 79.26 107.899 80.244 107.899 81.372C107.899 82.476 107.899 83.568 107.899 84.648C107.923 85.728 107.935 86.652 107.935 87.42C107.935 88.188 107.935 88.644 107.935 88.788C107.911 89.508 107.983 90.12 108.151 90.624C108.319 91.128 108.499 91.428 108.691 91.524C108.091 91.98 107.491 92.364 106.891 92.676C106.315 92.988 105.487 93.216 104.407 93.36C103.999 93.408 103.543 93.288 103.039 93C102.535 92.736 102.091 92.316 101.707 91.74C101.347 91.14 101.155 90.408 101.131 89.544C101.131 88.68 101.119 87.576 101.095 86.232C101.095 84.864 101.095 83.388 101.095 81.804C101.119 80.196 101.119 78.588 101.095 76.98C101.071 76.284 100.963 75.624 100.771 75C100.603 74.376 100.315 73.836 99.9068 73.38C99.4988 72.9 98.9588 72.504 98.2868 72.192C97.6148 71.88 96.7748 71.676 95.7668 71.58C95.5028 71.556 95.1428 71.484 94.6868 71.364C94.2308 71.244 93.9188 71.124 93.7508 71.004C93.4868 70.812 93.2708 70.452 93.1028 69.924C92.9348 69.372 92.8028 68.772 92.7068 68.124C92.6108 67.452 92.5388 66.792 92.4908 66.144C92.4668 65.496 92.4668 64.968 92.4908 64.56C92.5868 64.584 92.8508 64.62 93.2828 64.668C93.7388 64.716 94.2788 64.764 94.9028 64.812C95.5268 64.836 96.1388 64.86 96.7388 64.884C97.1708 64.908 97.7468 64.932 98.4668 64.956C99.2108 64.98 100.003 65.004 100.843 65.028C101.683 65.052 102.475 65.076 103.219 65.1C103.963 65.1 104.575 65.1 105.055 65.1C105.703 65.076 106.459 65.052 107.323 65.028C108.187 65.004 109.015 64.98 109.807 64.956C110.623 64.908 111.271 64.86 111.751 64.812C112.231 64.764 112.735 64.704 113.263 64.632C113.815 64.536 114.295 64.44 114.703 64.344C115.135 64.224 115.423 64.116 115.567 64.02ZM134.221 86.448C134.557 86.4 134.977 86.34 135.481 86.268C136.009 86.196 136.501 86.112 136.957 86.016C137.437 85.896 137.761 85.764 137.929 85.62C138.241 85.884 138.445 86.424 138.541 87.24C138.661 88.032 138.625 88.86 138.433 89.724C138.289 90.468 138.037 91.164 137.677 91.812C137.317 92.46 136.801 92.856 136.129 93C135.553 93.12 134.893 93.192 134.149 93.216C133.405 93.24 132.649 93.24 131.881 93.216C131.113 93.192 130.405 93.168 129.757 93.144C129.133 93.12 128.653 93.108 128.317 93.108C127.981 93.108 127.453 93.108 126.733 93.108C126.037 93.132 125.425 93.156 124.897 93.18C124.273 93.252 123.589 93.3 122.845 93.324C122.101 93.348 121.417 93.324 120.793 93.252C120.169 93.18 119.713 93.06 119.425 92.892C119.593 92.556 119.737 92.052 119.857 91.38C119.977 90.684 120.073 89.928 120.145 89.112C120.217 88.296 120.241 87.516 120.217 86.772L120.145 80.184V77.124C120.145 76.26 120.133 75.54 120.109 74.964C120.109 74.388 120.109 74.076 120.109 74.028C120.109 73.236 120.073 72.384 120.001 71.472C119.929 70.56 119.845 69.696 119.749 68.88C119.653 68.04 119.569 67.356 119.497 66.828C119.401 66.42 119.329 66.024 119.281 65.64C119.233 65.232 119.221 64.872 119.245 64.56C119.413 64.632 119.869 64.704 120.613 64.776C121.381 64.824 122.269 64.872 123.277 64.92C123.349 64.92 123.697 64.932 124.321 64.956C124.945 64.956 125.713 64.968 126.625 64.992C127.561 65.016 128.521 65.04 129.505 65.064C130.513 65.064 131.425 65.064 132.241 65.064C133.057 65.064 133.657 65.052 134.041 65.028C135.025 64.98 135.853 64.908 136.525 64.812C137.221 64.692 137.689 64.536 137.929 64.344C138.217 64.584 138.481 65.04 138.721 65.712C138.985 66.36 139.129 67.044 139.153 67.764C139.153 68.46 138.985 69.12 138.649 69.744C138.337 70.344 137.761 70.752 136.921 70.968C136.609 71.04 136.117 71.1 135.445 71.148C134.797 71.196 134.161 71.232 133.537 71.256C132.937 71.256 132.505 71.244 132.241 71.22C131.497 71.148 130.729 71.232 129.937 71.472C129.145 71.688 128.473 71.988 127.921 72.372C127.369 72.732 127.081 73.128 127.057 73.56C127.033 73.968 127.201 74.304 127.561 74.568C127.921 74.832 128.389 75.048 128.965 75.216C129.565 75.36 130.201 75.456 130.873 75.504C131.545 75.552 132.181 75.564 132.781 75.54C133.261 75.492 133.813 75.408 134.437 75.288C135.061 75.168 135.445 75.048 135.589 74.928C135.901 75.192 136.117 75.684 136.237 76.404C136.381 77.124 136.381 77.868 136.237 78.636C136.117 79.26 135.877 79.836 135.517 80.364C135.157 80.892 134.653 81.252 134.005 81.444C133.501 81.588 133.069 81.684 132.709 81.732C132.349 81.756 132.169 81.768 132.169 81.768C130.753 81.768 129.553 82.02 128.569 82.524C127.609 83.004 127.081 83.58 126.985 84.252C126.889 84.828 127.009 85.356 127.345 85.836C127.705 86.316 128.221 86.58 128.893 86.628C129.349 86.652 129.925 86.664 130.621 86.664C131.341 86.64 132.037 86.616 132.709 86.592C133.405 86.544 133.909 86.496 134.221 86.448ZM176.744 85.872C177.056 86.136 177.26 86.664 177.356 87.456C177.476 88.224 177.44 89.028 177.248 89.868C177.104 90.564 176.84 91.236 176.456 91.884C176.072 92.508 175.568 92.88 174.944 93C174.704 93.048 174.152 93.072 173.288 93.072C172.424 93.096 171.404 93.096 170.228 93.072C169.076 93.072 167.9 93.06 166.7 93.036C165.524 93.036 164.468 93.036 163.532 93.036C162.62 93.06 161.972 93.096 161.588 93.144C160.604 93.312 159.596 93.372 158.564 93.324C157.556 93.276 156.848 93.132 156.44 92.892C156.608 92.556 156.752 92.052 156.872 91.38C156.992 90.684 157.088 89.928 157.16 89.112C157.232 88.296 157.256 87.516 157.232 86.772L157.088 64.596C157.352 64.548 157.808 64.536 158.456 64.56C159.128 64.584 159.836 64.692 160.58 64.884C161.396 65.076 162.128 65.436 162.776 65.964C163.424 66.492 163.82 67.164 163.964 67.98C164.012 68.244 164.048 68.772 164.072 69.564C164.096 70.332 164.108 71.244 164.108 72.3C164.132 73.356 164.132 74.436 164.108 75.54C164.108 76.644 164.108 77.676 164.108 78.636C164.108 79.596 164.096 80.376 164.072 80.976C164.072 81.576 164.072 81.876 164.072 81.876C164.048 82.788 164.144 83.616 164.36 84.36C164.576 85.08 164.888 85.644 165.296 86.052C165.608 86.364 165.992 86.58 166.448 86.7C166.904 86.82 167.468 86.904 168.14 86.952C168.428 86.976 168.872 86.976 169.472 86.952C170.096 86.928 170.78 86.892 171.524 86.844C172.268 86.772 173 86.688 173.72 86.592C174.464 86.496 175.112 86.388 175.664 86.268C176.216 86.148 176.576 86.016 176.744 85.872ZM208.103 77.556C208.343 79.788 208.235 81.768 207.779 83.496C207.347 85.224 206.663 86.724 205.727 87.996C204.815 89.244 203.735 90.276 202.487 91.092C201.239 91.884 199.907 92.484 198.491 92.892C197.099 93.276 195.719 93.468 194.351 93.468C192.983 93.468 191.591 93.288 190.175 92.928C188.759 92.568 187.415 92.004 186.143 91.236C184.895 90.468 183.791 89.472 182.831 88.248C181.895 87.024 181.199 85.572 180.743 83.892C180.287 82.188 180.179 80.22 180.419 77.988C180.611 76.068 181.091 74.28 181.859 72.624C182.627 70.944 183.623 69.492 184.847 68.268C186.071 67.02 187.475 66.06 189.059 65.388C190.643 64.692 192.335 64.368 194.135 64.416C194.255 64.416 194.435 64.332 194.675 64.164C194.915 63.972 195.239 63.792 195.647 63.624C196.055 63.456 196.547 63.396 197.123 63.444C198.203 63.54 199.343 63.984 200.543 64.776C201.743 65.568 202.883 66.624 203.963 67.944C205.043 69.24 205.955 70.716 206.699 72.372C207.443 74.028 207.911 75.756 208.103 77.556ZM194.459 86.808C195.299 86.784 196.091 86.664 196.835 86.448C197.603 86.232 198.287 85.836 198.887 85.26C199.487 84.684 199.967 83.868 200.327 82.812C200.711 81.756 200.915 80.4 200.939 78.744C200.963 77.592 200.711 76.476 200.183 75.396C199.655 74.316 198.923 73.404 197.987 72.66C197.051 71.892 195.983 71.448 194.783 71.328C193.487 71.184 192.383 71.316 191.471 71.724C190.559 72.108 189.803 72.684 189.203 73.452C188.627 74.196 188.183 75.036 187.871 75.972C187.559 76.908 187.367 77.856 187.295 78.816C187.151 80.472 187.307 81.828 187.763 82.884C188.219 83.94 188.831 84.756 189.599 85.332C190.367 85.908 191.183 86.304 192.047 86.52C192.935 86.736 193.739 86.832 194.459 86.808ZM225.334 64.236C226.99 64.452 228.262 64.932 229.15 65.676C230.062 66.42 230.638 67.296 230.878 68.304C231.142 69.312 231.094 70.344 230.734 71.4C230.614 71.808 230.362 72.516 229.978 73.524C229.618 74.508 229.186 75.66 228.682 76.98C228.202 78.276 227.698 79.608 227.17 80.976C226.642 82.344 226.15 83.628 225.694 84.828C225.262 86.004 224.902 86.964 224.614 87.708C224.326 88.428 224.182 88.8 224.182 88.824C223.534 90.336 222.958 91.392 222.454 91.992C221.95 92.592 221.35 92.892 220.654 92.892C220.174 92.892 219.658 92.76 219.106 92.496C218.578 92.232 218.122 91.92 217.738 91.56C217.354 91.176 217.126 90.816 217.054 90.48C217.222 90.288 217.306 90.048 217.306 89.76C217.306 89.472 217.282 89.208 217.234 88.968C217.186 88.704 217.15 88.548 217.126 88.5C217.078 88.38 216.91 87.96 216.622 87.24C216.358 86.496 215.998 85.56 215.542 84.432C215.11 83.28 214.618 82.008 214.066 80.616C213.514 79.224 212.95 77.808 212.374 76.368C211.798 74.904 211.246 73.5 210.718 72.156C210.19 70.788 209.71 69.564 209.278 68.484C208.846 67.404 208.498 66.552 208.234 65.928C207.994 65.28 207.874 64.956 207.874 64.956C208.234 64.908 208.798 64.86 209.566 64.812C210.358 64.74 211.21 64.74 212.122 64.812C213.058 64.884 213.922 65.076 214.714 65.388C215.53 65.7 216.13 66.204 216.514 66.9C216.61 67.092 216.754 67.452 216.946 67.98C217.162 68.484 217.39 69.084 217.63 69.78C217.894 70.452 218.146 71.136 218.386 71.832C218.626 72.528 218.83 73.14 218.998 73.668C219.19 74.172 219.322 74.52 219.394 74.712C219.562 75.168 219.778 75.552 220.042 75.864C220.306 76.152 220.57 76.32 220.834 76.368C221.098 76.392 221.374 76.296 221.662 76.08C221.974 75.864 222.214 75.564 222.382 75.18C222.454 75.012 222.598 74.568 222.814 73.848C223.054 73.104 223.318 72.24 223.606 71.256C223.918 70.248 224.206 69.252 224.47 68.268C224.758 67.26 224.986 66.384 225.154 65.64C225.322 64.896 225.382 64.428 225.334 64.236ZM248.9 86.448C249.236 86.4 249.656 86.34 250.16 86.268C250.688 86.196 251.18 86.112 251.636 86.016C252.116 85.896 252.44 85.764 252.608 85.62C252.92 85.884 253.124 86.424 253.22 87.24C253.34 88.032 253.304 88.86 253.112 89.724C252.968 90.468 252.716 91.164 252.356 91.812C251.996 92.46 251.48 92.856 250.808 93C250.232 93.12 249.572 93.192 248.828 93.216C248.084 93.24 247.328 93.24 246.56 93.216C245.792 93.192 245.084 93.168 244.436 93.144C243.812 93.12 243.332 93.108 242.996 93.108C242.66 93.108 242.132 93.108 241.412 93.108C240.716 93.132 240.104 93.156 239.576 93.18C238.952 93.252 238.268 93.3 237.524 93.324C236.78 93.348 236.096 93.324 235.472 93.252C234.848 93.18 234.392 93.06 234.104 92.892C234.272 92.556 234.416 92.052 234.536 91.38C234.656 90.684 234.752 89.928 234.824 89.112C234.896 88.296 234.92 87.516 234.896 86.772L234.824 80.184V77.124C234.824 76.26 234.812 75.54 234.788 74.964C234.788 74.388 234.788 74.076 234.788 74.028C234.788 73.236 234.752 72.384 234.68 71.472C234.608 70.56 234.524 69.696 234.428 68.88C234.332 68.04 234.248 67.356 234.176 66.828C234.08 66.42 234.008 66.024 233.96 65.64C233.912 65.232 233.9 64.872 233.924 64.56C234.092 64.632 234.548 64.704 235.292 64.776C236.06 64.824 236.948 64.872 237.956 64.92C238.028 64.92 238.376 64.932 239 64.956C239.624 64.956 240.392 64.968 241.304 64.992C242.24 65.016 243.2 65.04 244.184 65.064C245.192 65.064 246.104 65.064 246.92 65.064C247.736 65.064 248.336 65.052 248.72 65.028C249.704 64.98 250.532 64.908 251.204 64.812C251.9 64.692 252.368 64.536 252.608 64.344C252.896 64.584 253.16 65.04 253.4 65.712C253.664 66.36 253.808 67.044 253.832 67.764C253.832 68.46 253.664 69.12 253.328 69.744C253.016 70.344 252.44 70.752 251.6 70.968C251.288 71.04 250.796 71.1 250.124 71.148C249.476 71.196 248.84 71.232 248.216 71.256C247.616 71.256 247.184 71.244 246.92 71.22C246.176 71.148 245.408 71.232 244.616 71.472C243.824 71.688 243.152 71.988 242.6 72.372C242.048 72.732 241.76 73.128 241.736 73.56C241.712 73.968 241.88 74.304 242.24 74.568C242.6 74.832 243.068 75.048 243.644 75.216C244.244 75.36 244.88 75.456 245.552 75.504C246.224 75.552 246.86 75.564 247.46 75.54C247.94 75.492 248.492 75.408 249.116 75.288C249.74 75.168 250.124 75.048 250.268 74.928C250.58 75.192 250.796 75.684 250.916 76.404C251.06 77.124 251.06 77.868 250.916 78.636C250.796 79.26 250.556 79.836 250.196 80.364C249.836 80.892 249.332 81.252 248.684 81.444C248.18 81.588 247.748 81.684 247.388 81.732C247.028 81.756 246.848 81.768 246.848 81.768C245.432 81.768 244.232 82.02 243.248 82.524C242.288 83.004 241.76 83.58 241.664 84.252C241.568 84.828 241.688 85.356 242.024 85.836C242.384 86.316 242.9 86.58 243.572 86.628C244.028 86.652 244.604 86.664 245.3 86.664C246.02 86.64 246.716 86.616 247.388 86.592C248.084 86.544 248.588 86.496 248.9 86.448Z" fill="#FF4D6D"/>
<path d="M139.186 50.7552C138.706 50.4849 138.55 49.8485 138.829 49.3777C139.761 47.5992 140.59 46.0386 141.374 44.2514C142.333 41.9411 144.766 35.2193 143.24 33.1531L143.249 33.1706C143.153 33.1183 142.917 33.0747 142.839 33.1008C142.543 33.1444 142.298 33.3101 142.072 33.4931C140.311 35.2019 139.718 37.7215 139.169 40.0056C139.09 41.1564 138.236 42.2724 137.19 41.1651C136.056 39.9446 134.679 33.4234 132.874 33.9814C132.046 34.8619 132.595 36.3876 132.691 37.4774C133.633 41.6795 136.135 45.2104 138.419 48.7151C138.619 49.6915 137.556 48.8284 137.233 48.5843C135.35 47.2243 133.781 45.4632 132.517 43.5191C127.347 35.7337 133.275 26.5011 138.21 38.323C139.073 36.126 139.936 33.6588 141.95 32.2464C144.783 30.6859 145.925 33.9029 145.69 36.2132C145.481 40.4241 143.571 44.3124 141.74 48.0264C141.06 48.9854 140.79 51.4439 139.186 50.7552Z" fill="#D88591"/>
<path d="M193.771 62.3068C189.272 59.3862 185.488 51.9932 185.602 46.614C185.549 44.1119 187.485 42.1678 189.847 43.7893C191.696 45.2714 192.707 47.5469 193.858 49.5695C194.555 46.9366 196.883 39.2297 200.362 43.554C202.332 47.73 201.451 52.7429 200.205 57.0323C199.577 58.3139 199.158 62.5509 197.275 62.0452C195.401 61.4873 197.275 58.2877 197.397 56.9189C198.409 52.8737 199.699 48.2967 198.269 44.234C197.746 44.2427 197.467 45.0099 197.232 45.3935C196.22 47.512 195.802 49.8136 195.427 52.1065C195.27 53.2922 193.762 53.9025 192.925 52.9696C191.12 50.7988 190.135 47.9915 188.173 45.9515C187.284 51.4439 190.475 56.8928 193.648 61.1386C193.927 61.4611 194.607 62.2981 193.771 62.3068Z" fill="#D88591"/>
<path d="M149.229 21.1046C147.817 18.8727 148.061 15.7603 149.116 13.4238C150.694 10.5556 152.656 12.6131 152.603 15.0716C153.632 14.3567 154.504 13.3192 155.707 12.9095C158.322 12.1597 157.73 15.0454 157.058 16.5188C156.404 18.0009 155.454 19.3609 154.417 20.6076C154.068 20.9825 153.449 21 153.065 20.6948C152.063 19.8579 153.196 18.8379 153.824 18.184C154.949 16.9198 156.335 15.5947 156.57 13.8598C156.57 13.8685 156.57 13.8859 156.57 13.8946C156.57 13.9034 156.57 13.9121 156.57 13.9295C156.57 13.8859 156.57 13.8423 156.561 13.7987C155.175 13.7726 154.303 15.2198 153.344 16.0306C152.952 16.4142 152.481 16.8763 151.888 16.667C150.825 16.1439 151.252 14.5747 150.598 13.6941C149.552 15.3942 150.145 17.6783 150.267 19.5789C150.31 19.9102 150.354 20.2328 150.363 20.5641C150.432 21.2528 149.7 21.7149 149.229 21.1046Z" fill="#D88591"/>
<path d="M190.118 86.9008C187.511 86.029 183.849 83.5182 183.396 80.6411C183.501 77.7118 187.005 79.4555 188.383 80.4581C188.453 78.5226 188.845 74.1199 191.748 75.3231C192.646 75.9508 193.108 77.0754 193.509 78.0606C194.25 80.1616 194.913 82.3238 195.27 84.5295C195.445 85.7936 193.561 86.1859 193.23 84.9479C193.117 84.4684 193.038 83.9715 192.951 83.4833C192.655 82.5853 191.8 75.2882 190.527 76.3256C189.202 78.0257 190.728 80.4319 189.664 82.1494C189.211 82.6551 188.453 82.6202 187.903 82.315C186.962 81.8878 185.985 81.5304 185.035 81.1294C186.439 83.5182 189.263 84.9741 191.748 85.8982C192.027 86.0639 192.114 86.4562 191.905 86.709C191.469 87.2408 190.658 87.049 190.118 86.9008Z" fill="#D88591"/>
<path d="M207.938 19.9887C205.584 19.7446 205.863 15.7429 208.321 16.2311C211.163 16.0655 210.693 20.4507 207.938 19.9887Z" fill="#D88591"/>
<path d="M180.327 33.1967C180.345 31.6449 182.698 31.6449 182.707 33.1967C182.698 34.7573 180.345 34.7573 180.327 33.1967Z" fill="#D88591"/>
<path d="M156.509 55.7333C155.062 54.9225 156.012 52.5337 157.538 52.5598C160.415 52.8301 158.968 56.9538 156.509 55.7333Z" fill="#D88591"/>
<path d="M133.162 23.0051C133.17 21.68 135.176 21.68 135.193 23.0051C135.176 24.3303 133.17 24.3303 133.162 23.0051Z" fill="#D88591"/>
<path d="M16.5121 69.0198C15.5531 68.0521 16.6254 65.8638 17.9506 66.8577C18.7265 66.7356 19.4589 67.3808 19.5635 68.1305C19.7378 69.9352 17.4537 70.3624 16.5121 69.0198Z" fill="white"/>
<path d="M0 121.774C0.0174364 120.222 2.36263 120.222 2.38007 121.774C2.36263 123.325 0.0174364 123.325 0 121.774Z" fill="white"/>
<path d="M281.049 21.7584C279.322 21.6015 278.756 19.1256 279.976 18.0358C280.674 17.2686 282.103 17.565 282.138 18.6984C283.83 19.544 282.81 22.02 281.049 21.7584Z" fill="white"/>
<path d="M309.191 87.328C309.208 85.8197 311.484 85.8197 311.501 87.328C311.484 88.8362 309.2 88.8362 309.191 87.328Z" fill="white"/>
<path d="M205.479 1.28811C205.496 -0.429371 208.094 -0.429371 208.112 1.28811C208.094 2.99688 205.496 2.99688 205.479 1.28811Z" fill="white"/>
<path d="M159.569 36.3266C159.299 35.8645 159.246 35.2193 159.552 34.766C159.621 34.6614 159.691 34.5742 159.778 34.4957C160.528 32.1941 163.841 32.848 163.501 35.3153C163.3 37.1112 160.563 37.9307 159.569 36.3266Z" fill="white"/>
<path d="M178.13 67.3895C178.148 65.8812 180.423 65.8812 180.44 67.3895C180.423 68.889 178.148 68.889 178.13 67.3895Z" fill="white"/>
<path d="M9.99992 105.07C10.0697 105.566 9.78197 106.133 9.29375 106.308C8.52655 106.578 7.72447 106.665 6.91368 106.682C6.93112 106.892 6.95727 107.101 6.97471 107.301C6.99214 108.566 7.56754 110.98 5.74544 111.164C5.22235 111.164 4.71669 110.797 4.59464 110.283C4.42899 109.071 4.42027 107.859 4.4813 106.639C3.34794 106.578 2.20585 106.482 1.06377 106.534C0.810941 106.499 0.619141 106.281 0.619141 106.029C0.619141 105.802 0.776068 105.593 0.994023 105.54C2.24944 105.471 3.43512 104.921 4.65567 104.599C4.83875 102.873 5.08286 101.146 5.17004 99.4289C5.09158 99.0104 5.74544 98.8535 5.85878 99.2719C6.2075 100.876 6.46905 102.524 6.66085 104.163C8.0732 103.875 9.66863 103.727 9.99992 105.07Z" fill="white"/>
<path d="M27.5494 53.0742C28.2207 53.7193 27.8982 54.9312 27.0002 55.1666C26.355 55.2537 25.6925 55.2712 25.0386 55.2625C25.0386 56.1692 25.0211 57.0758 25.0037 57.9738C24.995 58.8282 24.7596 59.9964 23.696 59.9877C23.1031 59.9877 22.6236 59.5431 22.5277 58.9677C22.4493 58.6974 22.5103 57.0235 22.6672 55.0358C18.3256 54.2076 19.8338 53.1091 22.8678 52.8039C23.1903 49.8223 23.6873 47.0499 24.2539 47.8171C24.7073 49.4213 24.9078 51.0777 24.9863 52.7516C25.9191 52.7603 26.8171 52.4726 27.5494 53.0742Z" fill="white"/>
<path d="M183.64 6.24006C184.494 6.69341 184.486 8.04473 183.64 8.49807C182.489 8.89911 181.225 8.87296 179.978 8.82936C179.97 10.4945 179.839 12.151 179.577 13.7726C179.255 15.1065 177.171 14.9757 177.04 13.6069C176.997 11.9592 177.049 10.3027 177.189 8.655C175.916 8.53295 174.625 8.40217 173.457 7.95754C172.882 7.39086 173.719 6.91136 174.251 6.85033C175.297 6.58879 176.36 6.40571 177.441 6.27493C177.651 4.63591 177.938 3.02305 178.27 1.4189C177.956 0.677851 179.211 0.433742 179.176 1.26197C179.534 2.83125 179.769 4.44411 179.882 6.07441C180.563 6.03954 181.234 6.0221 181.914 6.00467C182.507 5.98723 183.117 5.93492 183.64 6.24006Z" fill="white"/>
<path d="M301.449 33.3623C302.931 33.5716 302.94 35.7511 301.449 35.9691C300.743 36.0476 300.019 36.0127 299.313 36.0127C299.252 36.0127 299.182 36.0127 299.121 36.004C299.147 37.146 299.139 38.2968 299.113 39.4389C299.13 40.4938 299.052 42.0893 297.665 42.098C296.994 42.098 296.445 41.601 296.34 40.9472C296.279 39.2384 296.366 37.5384 296.523 35.8296C295.207 35.6465 293.925 35.2804 292.87 34.4783C292.748 34.3998 292.661 34.2603 292.661 34.0772C292.74 33.3188 294.169 33.4757 294.658 33.3623C295.364 33.2926 296.079 33.249 296.785 33.2316C296.977 31.5315 297.177 29.8315 297.299 28.1314C297.212 27.8699 297.325 27.5735 297.596 27.4514C298.738 27.0329 298.52 29.9623 298.755 30.6771C298.851 31.5315 298.93 32.3859 298.991 33.2403C299.81 33.2752 300.63 33.3188 301.449 33.3623Z" fill="white"/>
<path d="M308.24 115.139C308.232 116.333 306.959 116.517 306.026 116.333C305.573 116.29 305.111 116.255 304.648 116.22C304.683 117.153 304.675 118.095 304.596 119.027C304.413 120.457 302.234 120.466 302.068 119.027C302.016 118.007 302.077 116.996 302.19 115.993C301.327 115.88 300.472 115.697 299.662 115.401C298.929 114.79 299.862 114.311 300.464 114.311C301.135 114.18 301.806 114.075 302.486 113.997C302.678 112.82 302.896 111.643 303.027 110.466C302.905 110.161 303.07 109.769 303.445 109.716C303.846 109.664 304.134 110.056 304.038 110.405C304.186 111.547 304.352 112.698 304.465 113.857C304.718 113.849 304.971 113.849 305.224 113.849C306.322 113.849 308.188 113.57 308.24 115.139Z" fill="white"/>
</svg>
