<svg width="24" height="24" viewBox="0 0 24 24" fill="none" xmlns="http://www.w3.org/2000/svg">
<g clip-path="url(#clip0_1_1023)">
<path d="M19.5304 19.4698C19.2375 19.1769 18.7626 19.1769 18.4697 19.4698C18.1768 19.7626 18.1768 20.2375 18.4697 20.5304L19.5304 19.4698ZM22.4696 24.5304C22.7625 24.8233 23.2374 24.8233 23.5303 24.5304C23.8232 24.2375 23.8232 23.7626 23.5303 23.4697L22.4696 24.5304ZM9.33512 6.80232C9.74423 6.73752 10.0234 6.35334 9.95856 5.94423C9.89376 5.53511 9.50958 5.25599 9.10047 5.32079L9.33512 6.80232ZM4.32076 10.1005C4.25596 10.5096 4.53508 10.8938 4.9442 10.9586C5.35331 11.0234 5.73749 10.7443 5.80229 10.3351L4.32076 10.1005ZM18.4697 20.5304L22.4696 24.5304L23.5303 23.4697L19.5304 19.4698L18.4697 20.5304ZM11 20.25C6.44365 20.25 2.75 16.5563 2.75 12H1.25C1.25 17.3848 5.61522 21.75 11 21.75V20.25ZM19.25 12C19.25 16.5563 15.5563 20.25 11 20.25V21.75C16.3848 21.75 20.75 17.3848 20.75 12H19.25ZM11 3.75C15.5563 3.75 19.25 7.44365 19.25 12H20.75C20.75 6.61522 16.3848 2.25 11 2.25V3.75ZM11 2.25C5.61522 2.25 1.25 6.61522 1.25 12H2.75C2.75 7.44365 6.44365 3.75 11 3.75V2.25ZM9.10047 5.32079C6.64008 5.71047 4.71044 7.64012 4.32076 10.1005L5.80229 10.3351C6.09032 8.51661 7.51658 7.09035 9.33512 6.80232L9.10047 5.32079Z" fill="white"/>
</g>
<defs>
<clipPath id="clip0_1_1023">
<rect width="24" height="24" fill="white"/>
</clipPath>
</defs>
</svg>
