<svg width="45" height="45" viewBox="0 0 45 45" fill="none" xmlns="http://www.w3.org/2000/svg">
<circle cx="22.5" cy="22.5" r="22.5" fill="#FF8399"/>
<path fill-rule="evenodd" clip-rule="evenodd" d="M21.0999 11.25C17.7044 11.25 15.0772 14.226 15.4983 17.5954L15.5777 18.2302C15.6938 19.1592 15.3545 20.0871 14.6665 20.7219C13.2408 22.0375 12.8447 24.1315 13.6914 25.8769L13.7947 26.09C14.5408 27.6282 16.0558 28.6355 17.747 28.7408L17.9352 29.0636C18.948 30.7998 20.526 31.75 22.1831 31.75C23.8401 31.75 25.4181 30.7998 26.4309 29.0636L26.6221 28.7358C28.0429 28.6236 29.3384 27.8514 30.111 26.6373C31.2931 24.7799 30.98 22.3432 29.3667 20.845L29.3229 20.8042C29.1262 20.6216 28.9562 20.4169 28.815 20.1959C28.5919 19.8469 28.1281 19.7448 27.7791 19.9679C27.4301 20.191 27.3281 20.6548 27.5512 21.0038C27.7601 21.3307 28.0115 21.6335 28.3021 21.9033L28.346 21.9441C29.4288 22.9497 29.639 24.5852 28.8455 25.832C28.2835 26.7152 27.3091 27.25 26.2622 27.25H26.1973C26.1945 27.2499 26.1917 27.2499 26.1888 27.2499C26.1826 27.2499 26.1764 27.2499 26.1702 27.25H18.1959C18.1869 27.2498 18.1779 27.2498 18.1689 27.25H18.0414C16.8078 27.25 15.6827 26.5452 15.1443 25.4353L15.041 25.2223C14.4829 24.0718 14.744 22.6915 15.6837 21.8243C16.7275 20.8611 17.2423 19.4535 17.0661 18.0442L16.9868 17.4093C16.6775 14.9353 18.6066 12.75 21.0999 12.75H22.8028C23.9214 12.75 24.9241 13.1876 25.6654 13.8947C25.9652 14.1806 26.4399 14.1693 26.7258 13.8696C27.0117 13.5699 27.0004 13.0951 26.7007 12.8092C25.6926 11.8477 24.3235 11.25 22.8028 11.25H21.0999ZM22.1831 30.25C21.2619 30.25 20.2792 29.7877 19.5198 28.75H24.8463C24.087 29.7877 23.1042 30.25 22.1831 30.25Z" fill="white"/>
<path d="M29.1832 17C29.1832 18.1046 28.2878 19 27.1832 19C26.0786 19 25.1832 18.1046 25.1832 17C25.1832 15.8954 26.0786 15 27.1832 15C28.2878 15 29.1832 15.8954 29.1832 17Z" fill="white"/>
</svg>
