<svg width="45" height="45" viewBox="0 0 45 45" fill="none" xmlns="http://www.w3.org/2000/svg">
<circle cx="22.5" cy="22.5" r="22.5" fill="#FF8399"/>
<path d="M16 26.25C15.5858 26.25 15.25 26.5858 15.25 27C15.25 27.4142 15.5858 27.75 16 27.75H18C18.4142 27.75 18.75 27.4142 18.75 27C18.75 26.5858 18.4142 26.25 18 26.25H16Z" fill="white"/>
<path d="M21 26.25C20.5858 26.25 20.25 26.5858 20.25 27C20.25 27.4142 20.5858 27.75 21 27.75H25C25.4142 27.75 25.75 27.4142 25.75 27C25.75 26.5858 25.4142 26.25 25 26.25H21Z" fill="white"/>
<path fill-rule="evenodd" clip-rule="evenodd" d="M27.3451 13.3206C26.4807 13.25 25.4053 13.25 24.0336 13.25H19.9664C18.5947 13.25 17.5193 13.25 16.6549 13.3206C15.7748 13.3925 15.0477 13.5414 14.3896 13.8767C13.3076 14.428 12.428 15.3076 11.8767 16.3896C11.3939 17.3371 11.2906 18.4494 11.2612 19.9856C11.25 20.5699 11.25 21.2352 11.25 21.9942V22.0336C11.25 23.4053 11.25 24.4807 11.3206 25.3451C11.3925 26.2252 11.5414 26.9523 11.8767 27.6104C12.428 28.6924 13.3076 29.572 14.3896 30.1233C15.0477 30.4586 15.7748 30.6075 16.6549 30.6794C17.5193 30.75 18.5947 30.75 19.9664 30.75H24.0336C25.4053 30.75 26.4807 30.75 27.3451 30.6794C28.2252 30.6075 28.9523 30.4586 29.6104 30.1233C30.6924 29.572 31.572 28.6924 32.1233 27.6104C32.4586 26.9523 32.6075 26.2252 32.6794 25.3451C32.75 24.4807 32.75 23.4053 32.75 22.0336V21.9942C32.75 21.2352 32.75 20.5699 32.7388 19.9856C32.7094 18.4494 32.6061 17.3371 32.1233 16.3896C31.572 15.3076 30.6924 14.428 29.6104 13.8767C28.9523 13.5414 28.2252 13.3925 27.3451 13.3206ZM15.0705 15.2132C15.482 15.0036 15.9897 14.88 16.7771 14.8156C17.5732 14.7506 18.5875 14.75 20 14.75H24C25.4125 14.75 26.4268 14.7506 27.2229 14.8156C28.0103 14.88 28.518 15.0036 28.9295 15.2132C29.7291 15.6207 30.3793 16.2709 30.7868 17.0705C31.0409 17.5692 31.1625 18.1922 31.2143 19.25H12.7857C12.8375 18.1922 12.9591 17.5692 13.2132 17.0705C13.6207 16.2709 14.2709 15.6207 15.0705 15.2132ZM12.75 22C12.75 21.5452 12.75 21.1307 12.7523 20.75H31.2477C31.25 21.1307 31.25 21.5452 31.25 22C31.25 23.4125 31.2494 24.4268 31.1844 25.2229C31.12 26.0103 30.9964 26.518 30.7868 26.9295C30.3793 27.7291 29.7291 28.3793 28.9295 28.7868C28.518 28.9964 28.0103 29.12 27.2229 29.1844C26.4268 29.2494 25.4125 29.25 24 29.25H20C18.5875 29.25 17.5732 29.2494 16.7771 29.1844C15.9897 29.12 15.482 28.9964 15.0705 28.7868C14.2709 28.3793 13.6207 27.7291 13.2132 26.9295C13.0036 26.518 12.88 26.0103 12.8156 25.2229C12.7506 24.4268 12.75 23.4125 12.75 22Z" fill="white"/>
</svg>
