<svg width="22" height="22" viewBox="0 0 22 22" fill="none" xmlns="http://www.w3.org/2000/svg">
<path d="M14.75 7.75H14C14 9.54493 12.5449 11 10.75 11V11.75V12.5C13.3734 12.5 15.5 10.3734 15.5 7.75H14.75ZM10.75 11.75V11C8.95507 11 7.5 9.54493 7.5 7.75H6.75H6C6 10.3734 8.12665 12.5 10.75 12.5V11.75ZM6.75 7.75H7.5C7.5 5.95507 8.95507 4.5 10.75 4.5V3.75V3C8.12665 3 6 5.12665 6 7.75H6.75ZM10.75 3.75V4.5C12.5449 4.5 14 5.95507 14 7.75H14.75H15.5C15.5 5.12665 13.3734 3 10.75 3V3.75ZM7.75 14.75V15.5H13.75V14.75V14H7.75V14.75ZM0.75 10.75H1.5C1.5 5.64137 5.64137 1.5 10.75 1.5V0.75V0C4.81294 0 0 4.81294 0 10.75H0.75ZM10.75 0.75V1.5C15.8586 1.5 20 5.64137 20 10.75H20.75H21.5C21.5 4.81294 16.6871 0 10.75 0V0.75ZM20.75 10.75H20C20 13.3733 18.909 15.7405 17.1539 17.4248L17.6732 17.9659L18.1925 18.5071C20.2301 16.5516 21.5 13.7985 21.5 10.75H20.75ZM17.6732 17.9659L17.1539 17.4248C15.4912 19.0205 13.2358 20 10.75 20V20.75V21.5C13.6382 21.5 16.2617 20.36 18.1925 18.5071L17.6732 17.9659ZM13.75 14.75V15.5C15.326 15.5 16.6415 16.6226 16.9376 18.1121L17.6732 17.9659L18.4088 17.8197C17.976 15.6418 16.0555 14 13.75 14V14.75ZM10.75 20.75V20C8.26425 20 6.00884 19.0205 4.34612 17.4248L3.82681 17.9659L3.30751 18.5071C5.23833 20.36 7.86182 21.5 10.75 21.5V20.75ZM3.82681 17.9659L4.34612 17.4248C2.59103 15.7405 1.5 13.3733 1.5 10.75H0.75H0C0 13.7985 1.26989 16.5516 3.30751 18.5071L3.82681 17.9659ZM7.75 14.75V14C5.44445 14 3.52403 15.6418 3.0912 17.8197L3.82681 17.9659L4.56243 18.1121C4.85846 16.6226 6.17396 15.5 7.75 15.5V14.75Z" fill="#FF4D6D"/>
<path d="M13.7501 14.75H7.75009C5.8093 14.75 4.19134 16.1322 3.8269 17.9659C5.62368 19.6903 8.06313 20.75 10.7501 20.75C13.4371 20.75 15.8765 19.6903 17.6733 17.9659C17.3088 16.1322 15.6909 14.75 13.7501 14.75Z" fill="#FF4D6D"/>
<path d="M17.6733 17.9659L18.1926 18.5071L18.489 18.2226L18.4089 17.8197L17.6733 17.9659ZM3.8269 17.9659L3.09129 17.8197L3.01122 18.2226L3.3076 18.5071L3.8269 17.9659ZM7.75009 14.75V15.5H13.7501V14.75V14H7.75009V14.75ZM17.6733 17.9659L17.154 17.4248C15.4912 19.0205 13.2358 20 10.7501 20V20.75V21.5C13.6383 21.5 16.2618 20.36 18.1926 18.5071L17.6733 17.9659ZM13.7501 14.75V15.5C15.3261 15.5 16.6416 16.6226 16.9377 18.1121L17.6733 17.9659L18.4089 17.8197C17.9761 15.6418 16.0556 14 13.7501 14V14.75ZM10.7501 20.75V20C8.26434 20 6.00893 19.0205 4.34621 17.4248L3.8269 17.9659L3.3076 18.5071C5.23842 20.36 7.86191 21.5 10.7501 21.5V20.75ZM7.75009 14.75V14C5.44454 14 3.52412 15.6418 3.09129 17.8197L3.8269 17.9659L4.56252 18.1121C4.85855 16.6226 6.17405 15.5 7.75009 15.5V14.75Z" fill="#FF4D6D"/>
<path d="M14.75 7.75C14.75 9.95914 12.9591 11.75 10.75 11.75C8.54086 11.75 6.75 9.95914 6.75 7.75C6.75 5.54086 8.54086 3.75 10.75 3.75C12.9591 3.75 14.75 5.54086 14.75 7.75Z" fill="#FF4D6D"/>
<path d="M14.75 7.75H14C14 9.54493 12.5449 11 10.75 11V11.75V12.5C13.3734 12.5 15.5 10.3734 15.5 7.75H14.75ZM10.75 11.75V11C8.95507 11 7.5 9.54493 7.5 7.75H6.75H6C6 10.3734 8.12665 12.5 10.75 12.5V11.75ZM6.75 7.75H7.5C7.5 5.95507 8.95507 4.5 10.75 4.5V3.75V3C8.12665 3 6 5.12665 6 7.75H6.75ZM10.75 3.75V4.5C12.5449 4.5 14 5.95507 14 7.75H14.75H15.5C15.5 5.12665 13.3734 3 10.75 3V3.75Z" fill="#FF4D6D"/>
</svg>
