<svg width="45" height="45" viewBox="0 0 45 45" fill="none" xmlns="http://www.w3.org/2000/svg">
<circle cx="22.5" cy="22.5" r="22.5" fill="#FF8399"/>
<path d="M26.5625 15C26.5625 17.2437 24.7437 19.0625 22.5 19.0625V20.9375C25.7792 20.9375 28.4375 18.2792 28.4375 15H26.5625ZM22.5 19.0625C20.2563 19.0625 18.4375 17.2437 18.4375 15H16.5625C16.5625 18.2792 19.2208 20.9375 22.5 20.9375V19.0625ZM18.4375 15C18.4375 12.7563 20.2563 10.9375 22.5 10.9375V9.0625C19.2208 9.0625 16.5625 11.7208 16.5625 15H18.4375ZM22.5 10.9375C24.7437 10.9375 26.5625 12.7563 26.5625 15H28.4375C28.4375 11.7208 25.7792 9.0625 22.5 9.0625V10.9375ZM18.75 24.6875H26.25V22.8125H18.75V24.6875ZM26.25 32.8125H18.75V34.6875H26.25V32.8125ZM18.75 32.8125C16.5063 32.8125 14.6875 30.9937 14.6875 28.75H12.8125C12.8125 32.0292 15.4708 34.6875 18.75 34.6875V32.8125ZM30.3125 28.75C30.3125 30.9937 28.4937 32.8125 26.25 32.8125V34.6875C29.5292 34.6875 32.1875 32.0292 32.1875 28.75H30.3125ZM26.25 24.6875C28.4937 24.6875 30.3125 26.5063 30.3125 28.75H32.1875C32.1875 25.4708 29.5292 22.8125 26.25 22.8125V24.6875ZM18.75 22.8125C15.4708 22.8125 12.8125 25.4708 12.8125 28.75H14.6875C14.6875 26.5063 16.5063 24.6875 18.75 24.6875V22.8125Z" fill="white"/>
</svg>
