<svg width="45" height="45" viewBox="0 0 45 45" fill="none" xmlns="http://www.w3.org/2000/svg">
<circle cx="22.5" cy="22.5" r="22.5" fill="#FF8399"/>
<path fill-rule="evenodd" clip-rule="evenodd" d="M21 11.25C18.3766 11.25 16.25 13.3766 16.25 16C16.25 18.6234 18.3766 20.75 21 20.75C23.6234 20.75 25.75 18.6234 25.75 16C25.75 13.3766 23.6234 11.25 21 11.25ZM17.75 16C17.75 14.2051 19.2051 12.75 21 12.75C22.7949 12.75 24.25 14.2051 24.25 16C24.25 17.7949 22.7949 19.25 21 19.25C19.2051 19.25 17.75 17.7949 17.75 16Z" fill="white"/>
<path d="M18 22.25C15.3766 22.25 13.25 24.3766 13.25 27C13.25 29.6234 15.3766 31.75 18 31.75H24C24.4142 31.75 24.75 31.4142 24.75 31C24.75 30.5858 24.4142 30.25 24 30.25H18C16.2051 30.25 14.75 28.7949 14.75 27C14.75 25.2051 16.2051 23.75 18 23.75H24C24.4142 23.75 24.75 23.4142 24.75 23C24.75 22.5858 24.4142 22.25 24 22.25H18Z" fill="white"/>
<path d="M28.75 24C28.75 23.5858 28.4142 23.25 28 23.25C27.5858 23.25 27.25 23.5858 27.25 24V26.25H25C24.5858 26.25 24.25 26.5858 24.25 27C24.25 27.4142 24.5858 27.75 25 27.75H27.25V30C27.25 30.4142 27.5858 30.75 28 30.75C28.4142 30.75 28.75 30.4142 28.75 30V27.75H31C31.4142 27.75 31.75 27.4142 31.75 27C31.75 26.5858 31.4142 26.25 31 26.25H28.75V24Z" fill="white"/>
</svg>
